<?xml version="1.0" standalone="no"?>
<!DOCTYPE svg PUBLIC "-//W3C//DTD SVG 20010904//EN"
 "http://www.w3.org/TR/2001/REC-SVG-20010904/DTD/svg10.dtd">
<svg version="1.0" xmlns="http://www.w3.org/2000/svg"
 width="11471.000000pt" height="8334.000000pt" viewBox="0 0 11471.000000 8334.000000"
 preserveAspectRatio="xMidYMid meet">

<g transform="translate(0.000000,8334.000000) scale(0.100000,-0.100000)"
fill="#000000" stroke="none">
<path d="M68779 75780 c-158 -18 -314 -71 -416 -141 -26 -18 -82 -65 -124
-104 -53 -50 -107 -87 -185 -128 -276 -145 -365 -272 -427 -612 -20 -110 -22
-150 -22 -495 1 -292 5 -408 18 -525 57 -488 189 -853 392 -1083 50 -56 163
-148 171 -139 3 3 9 65 13 139 9 143 10 136 -49 283 -39 97 -85 276 -95 368
-7 64 -9 67 -34 67 -37 1 -101 32 -133 66 -98 105 -97 305 4 419 47 54 103 85
156 87 20 1 81 -5 134 -12 116 -17 220 -4 307 36 72 32 100 60 171 164 268
393 692 623 1069 580 46 -5 91 -12 101 -15 43 -14 146 -196 182 -322 21 -70
23 -99 23 -283 -1 -388 -60 -846 -140 -1081 -14 -40 -23 -74 -22 -76 2 -1 44
61 94 140 504 795 674 1467 480 1891 -80 174 -234 321 -429 410 -40 19 -138
57 -218 86 -80 29 -208 82 -285 117 -175 82 -297 129 -377 148 -82 18 -263 26
-359 15z"/>
<path d="M41210 73593 c-270 -23 -534 -141 -767 -341 -131 -113 -293 -336
-413 -572 -84 -166 -208 -456 -245 -570 -87 -275 -248 -1089 -330 -1665 -14
-99 -27 -193 -30 -208 l-5 -28 48 39 c170 142 311 185 602 183 125 -1 256 -14
351 -37 22 -5 27 -2 32 18 11 43 36 322 47 521 l11 198 -64 69 c-103 109 -175
243 -218 409 -30 114 -37 327 -14 463 l17 107 -21 30 c-120 168 -92 474 47
516 38 11 89 -4 121 -35 l29 -30 45 83 c143 260 322 432 529 504 133 47 365
42 526 -10 30 -10 38 -17 40 -42 2 -16 21 -118 42 -225 95 -475 233 -824 380
-965 56 -52 57 -53 116 -52 73 0 113 -20 143 -74 78 -138 -20 -373 -192 -459
-71 -35 -135 -39 -189 -12 l-35 19 -49 -60 c-83 -99 -218 -201 -358 -268 l-83
-40 -31 -192 c-18 -106 -36 -235 -42 -287 -6 -52 -13 -114 -16 -137 l-5 -43
403 0 c389 0 656 -10 769 -30 30 -5 84 -11 120 -12 59 -3 73 -8 123 -42 221
-152 451 -683 676 -1561 104 -405 186 -795 169 -805 -6 -4 -46 -15 -90 -25
-43 -10 -79 -23 -79 -30 0 -21 170 -1169 174 -1173 6 -5 230 114 366 196 484
290 721 529 809 816 99 320 -10 748 -299 1185 -127 191 -243 335 -559 686
-524 582 -763 960 -925 1464 -80 249 -114 435 -166 911 -36 325 -58 455 -106
610 -105 337 -342 622 -687 826 -213 126 -499 197 -717 177z"/>
<path d="M66460 71479 c-146 -23 -323 -161 -450 -350 -215 -322 -343 -832
-400 -1594 -18 -236 -24 -1027 -11 -1419 7 -193 14 -363 17 -377 6 -30 30 -36
264 -66 232 -30 1336 -20 1369 12 3 3 5 293 6 643 0 628 -6 815 -40 1227 -74
886 -252 1535 -494 1797 -96 104 -173 141 -261 127z"/>
<path d="M70835 71468 c17 -78 60 -716 76 -1131 19 -498 3 -1681 -27 -1914
l-5 -42 -372 -3 -372 -3 -55 -31 c-33 -19 -68 -49 -86 -75 -18 -26 -206 -473
-449 -1069 -474 -1163 -697 -1710 -784 -1920 l-60 -145 -1150 -5 -1150 -5 -30
-29 c-16 -16 -33 -42 -36 -57 -9 -42 12 -95 48 -121 l32 -23 3260 0 3260 0 66
23 c80 28 158 81 211 143 31 36 177 355 675 1465 349 781 647 1450 660 1488
19 54 24 81 19 117 -13 99 -68 178 -154 221 l-47 23 -1115 3 c-613 1 -1109 6
-1102 11 11 6 1 55 -48 237 -213 796 -455 1575 -617 1984 -127 322 -294 609
-437 754 -101 102 -224 163 -211 104z m1167 -4624 c153 -107 125 -375 -47
-455 -187 -87 -366 128 -280 336 21 50 83 115 130 137 60 28 143 20 197 -18z"/>
<path d="M42240 67575 c0 -23 -68 -904 -79 -1025 -5 -52 -7 -98 -4 -102 2 -5
74 -8 159 -8 153 0 154 0 154 23 0 39 -216 1116 -226 1126 -2 2 -4 -4 -4 -14z"/>
<path d="M38650 65361 c-3101 -837 -4838 -1400 -5204 -1687 -47 -37 -65 -60
-92 -118 -173 -375 -537 -1928 -783 -3340 -132 -757 -279 -1822 -254 -1847 30
-30 507 -127 733 -149 150 -14 451 -14 547 0 l83 12 9 37 c121 469 179 684
313 1151 319 1119 712 2372 804 2562 10 21 25 40 33 42 24 8 251 36 284 36 22
0 27 -4 23 -17 -11 -36 -45 -334 -60 -523 -95 -1218 -95 -3118 -1 -4430 18
-244 21 -266 41 -274 8 -3 98 -11 201 -17 369 -22 845 29 1083 117 l66 25 17
267 c64 967 250 2777 352 3435 34 219 38 233 78 247 148 53 525 155 1597 430
2071 531 2459 641 2738 775 232 111 400 233 577 416 254 263 421 559 510 904
47 182 65 327 65 520 0 256 -40 483 -125 710 -52 138 -95 222 -262 507 l-144
246 -132 -68 c-181 -94 -428 -204 -707 -315 -758 -301 -1382 -464 -1636 -426
-43 6 -88 18 -99 25 -25 17 -27 24 -95 471 -27 182 -53 347 -56 368 -3 20 -11
37 -17 36 -7 0 -226 -58 -487 -128z"/>
<path d="M56065 62287 c-3 -7 -4 -1936 -2 -4287 3 -4628 -1 -4311 52 -4560 96
-461 329 -892 660 -1226 66 -66 156 -149 200 -184 464 -367 1017 -555 1580
-537 391 13 656 83 1035 275 275 139 401 194 593 261 239 82 501 140 782 173
170 20 639 16 800 -5 676 -93 1263 -343 1790 -763 141 -113 426 -398 539 -539
421 -529 673 -1120 763 -1795 23 -170 25 -655 5 -825 -84 -689 -339 -1300
-764 -1833 -124 -155 -385 -417 -533 -536 -216 -172 -468 -331 -709 -446 -837
-401 -1807 -455 -2691 -150 -177 62 -283 108 -560 249 -424 216 -719 293
-1125 294 -378 1 -703 -75 -1045 -242 -253 -124 -439 -255 -638 -450 -380
-371 -618 -832 -709 -1378 l-22 -128 -3 -4307 -3 -4308 4249 0 c2841 0 4283
-3 4352 -10 326 -33 572 -102 854 -240 647 -317 1125 -910 1296 -1605 50 -207
63 -319 63 -550 0 -431 -69 -694 -309 -1170 -196 -389 -295 -661 -359 -992
-50 -259 -60 -367 -61 -688 0 -317 8 -414 51 -655 247 -1355 1267 -2450 2604
-2796 309 -80 550 -109 905 -108 220 0 300 4 435 22 813 109 1526 469 2101
1059 833 856 1177 2065 920 3239 -70 317 -148 528 -341 919 -120 242 -168 367
-214 550 -162 651 -42 1336 334 1904 110 166 186 259 329 401 414 412 936 655
1526 710 124 11 385 14 385 3 0 -3 -27 -71 -60 -150 -156 -374 -255 -737 -306
-1125 -24 -182 -29 -573 -10 -768 36 -373 128 -759 266 -1115 24 -60 44 -112
46 -114 2 -2 31 14 66 36 290 181 632 302 983 348 188 24 385 19 1760 -45 710
-33 1307 -59 1327 -58 l37 3 -71 105 c-322 481 -478 883 -478 1235 0 235 70
622 243 1345 l73 305 817 3 817 2 4 -22 c3 -13 8 -70 11 -128 35 -602 221
-1656 500 -2837 l27 -113 42 0 c22 0 268 -11 546 -25 277 -13 506 -22 508 -20
2 2 -8 111 -22 242 -104 954 -144 1758 -116 2328 10 190 34 473 46 543 l6 32
539 0 539 0 0 1193 0 1192 71 85 c85 102 358 407 389 435 l23 20 -7 -45 c-77
-528 -71 -1013 20 -1555 62 -371 138 -672 330 -1318 222 -745 285 -1033 300
-1377 11 -253 -18 -440 -111 -723 -70 -214 -126 -409 -179 -625 -49 -203 -111
-500 -105 -506 2 -2 201 -12 442 -24 241 -11 440 -22 442 -24 2 -2 -29 -721
-70 -1598 -41 -877 -75 -1617 -75 -1645 l0 -50 54 120 c69 157 212 441 320
635 l86 155 0 -100 c0 -85 4 -108 23 -145 50 -99 130 -111 284 -41 50 23 127
51 170 62 117 30 350 45 518 33 l141 -9 61 -48 c34 -26 110 -100 170 -164 228
-247 277 -294 334 -323 61 -31 250 -84 259 -72 3 4 12 25 19 47 47 139 161
202 253 140 126 -86 159 -373 63 -541 l-24 -40 40 -100 c22 -54 65 -144 95
-199 l55 -100 174 -103 c96 -56 178 -102 183 -102 5 0 147 -81 316 -180 172
-101 313 -177 319 -173 7 4 55 41 107 83 203 164 424 317 522 363 56 26 273
101 323 111 20 5 12 -3 -28 -23 -248 -128 -478 -403 -693 -829 -131 -257 -227
-525 -378 -1047 -107 -372 -326 -1207 -326 -1245 0 -6 53 -36 118 -67 64 -30
299 -144 522 -253 223 -109 438 -212 479 -230 193 -84 676 -258 686 -248 11
11 228 488 320 703 401 936 617 1652 642 2129 6 118 -8 257 -32 327 -9 23 -14
44 -12 46 2 2 55 -72 118 -164 184 -270 633 -865 1051 -1390 l129 -162 62 23
c940 354 1759 965 2582 1926 893 1041 1716 2358 2659 4255 246 494 366 742
761 1575 557 1176 813 1644 1055 1932 l30 36 -77 26 c-133 43 -221 57 -403 63
-193 6 -313 -4 -505 -42 -658 -132 -1390 -548 -2110 -1199 -435 -393 -1541
-1449 -2985 -2851 -1407 -1365 -1724 -1668 -1880 -1798 -301 -250 -657 -421
-1038 -497 -181 -36 -325 -54 -647 -80 -555 -46 -808 -93 -1112 -206 -193 -72
-439 -204 -606 -325 -38 -28 -71 -48 -74 -46 -9 10 19 123 67 267 77 227 100
412 81 624 -39 408 -202 744 -471 966 -41 34 -79 66 -84 71 -21 19 315 411
573 669 402 401 838 746 1546 1225 460 312 724 531 1110 926 631 644 1257
1504 1859 2553 539 938 1071 2065 1471 3116 35 91 116 273 180 405 1258 2578
2160 5092 2409 6715 81 522 94 765 76 1410 -16 569 -7 1079 35 2065 40 951 45
1135 45 1685 0 532 -8 789 -36 1160 -89 1195 -335 2268 -774 3365 -28 71 -54
133 -57 138 -3 4 -51 -90 -107 -210 -663 -1413 -1393 -2818 -1924 -3708 -255
-427 -389 -629 -703 -1060 -501 -689 -788 -1128 -1067 -1632 -630 -1135 -1124
-2526 -1541 -4338 -214 -927 -515 -2458 -676 -3440 -88 -532 -134 -854 -205
-1430 -142 -1148 -141 -1144 -862 -3395 -777 -2427 -988 -3172 -1033 -3634
-10 -102 -22 -168 -45 -239 -100 -314 -382 -862 -926 -1803 l-174 -301 -168
-6 c-175 -6 -270 -19 -428 -62 -201 -53 -400 -148 -516 -246 -27 -22 -48 -38
-48 -36 0 3 54 103 120 224 361 653 634 1261 907 2013 126 349 236 631 538
1385 330 824 462 1174 611 1620 354 1064 525 1923 595 2990 7 111 13 501 14
1020 1 524 6 919 14 1050 15 256 52 825 86 1310 91 1308 96 2072 20 2899 -79
856 -283 1761 -565 2511 l-40 106 75 87 c840 978 1469 2479 1849 4407 116 591
202 1189 276 1935 54 545 115 855 244 1238 164 489 320 808 846 1732 439 771
507 905 639 1258 270 722 488 1863 546 2857 l6 100 -34 -85 c-198 -503 -491
-1007 -919 -1578 -706 -943 -1694 -1950 -3058 -3117 -408 -349 -611 -536 -960
-885 -884 -885 -1816 -1970 -2542 -2962 -727 -993 -1246 -1887 -1481 -2552
l-32 -91 -6 2590 c-5 2701 -4 2625 -49 3040 -187 1701 -913 3307 -2070 4580
-263 289 -637 641 -935 880 -1227 984 -2717 1594 -4270 1749 -344 35 -487 40
-1144 40 l-665 1 -54 -165 c-29 -91 -150 -457 -267 -815 -780 -2378 -1170
-3656 -1244 -4072 l-17 -98 -112 -3 c-106 -2 -112 -4 -112 -23 0 -36 31 -141
57 -197 28 -59 111 -154 172 -197 22 -15 38 -31 36 -35 -8 -13 -208 -77 -325
-104 -161 -38 -258 -49 -398 -44 -148 6 -153 7 -362 119 -80 43 -158 81 -173
85 -23 5 -27 11 -23 28 7 28 76 357 76 362 0 2 -13 4 -30 4 -21 0 -30 5 -30
17 0 71 284 4531 296 4643 8 80 26 219 39 310 14 91 25 171 25 179 0 19 -1878
10 -2420 -13 -662 -28 -1274 -57 -1278 -61 -3 -3 599 -4618 625 -4787 5 -36 4
-38 -23 -38 -16 0 -45 -3 -65 -6 l-37 -6 14 -62 c28 -119 67 -232 110 -321 24
-49 40 -93 36 -97 -16 -16 -304 -121 -411 -150 -104 -28 -131 -32 -261 -32
-143 0 -146 0 -250 38 -117 42 -249 108 -275 136 -15 17 -15 21 8 67 34 66 47
145 39 223 l-7 65 -40 0 c-22 -1 -78 -5 -125 -9 l-86 -8 -38 133 c-477 1676
-959 3508 -1239 4709 l-52 225 -4948 3 c-3973 2 -4949 0 -4952 -11z"/>
<path d="M33075 57278 c-86 -66 -265 -179 -360 -227 -132 -66 -248 -103 -430
-136 -82 -15 -176 -37 -207 -50 -191 -76 -472 -289 -754 -570 -303 -302 -454
-537 -400 -619 57 -88 199 -86 586 9 496 122 1731 530 1972 651 57 29 73 67
66 158 -5 61 -84 264 -197 508 -82 180 -174 308 -217 308 -10 0 -37 -14 -59
-32z"/>
<path d="M35985 55819 c-240 -241 -369 -327 -648 -433 -147 -55 -205 -90 -307
-183 -368 -334 -800 -991 -800 -1215 0 -52 14 -77 55 -94 110 -46 292 18 845
297 530 267 1466 803 1534 878 26 29 25 122 -2 183 -20 47 -206 330 -300 458
-98 133 -201 230 -244 230 -7 0 -67 -54 -133 -121z"/>
<path d="M15203 50457 c-183 -309 -289 -619 -350 -1022 -25 -169 -25 -647 0
-820 85 -581 269 -1070 578 -1531 138 -206 342 -443 508 -590 l97 -87 23 -186
c31 -255 84 -645 131 -956 21 -143 42 -280 46 -305 5 -37 -8 -16 -79 125 -187
368 -400 659 -698 951 -376 367 -799 629 -1257 778 -265 87 -474 124 -745 133
l-178 6 6 -44 c36 -258 75 -427 145 -640 168 -505 456 -966 850 -1359 578
-579 1269 -904 2008 -946 114 -6 123 -8 127 -28 3 -11 23 -115 45 -231 51
-268 154 -757 229 -1088 32 -142 53 -252 46 -245 -6 7 -47 58 -91 113 -92 117
-322 351 -444 452 -471 391 -1031 639 -1625 719 -176 24 -505 24 -670 0 -278
-40 -509 -110 -735 -222 -80 -40 -162 -83 -182 -96 l-38 -23 63 -100 c652
-1042 1883 -1650 3007 -1485 248 36 466 103 689 210 68 33 125 60 127 60 2 0
4 -8 4 -17 0 -24 164 -655 262 -1008 126 -455 329 -1131 422 -1402 14 -40 23
-73 21 -73 -2 0 -32 40 -65 90 -327 476 -817 814 -1350 928 -116 24 -143 26
-360 26 -263 0 -343 -11 -550 -80 -193 -64 -458 -209 -590 -323 l-35 -30 73
-145 c355 -702 969 -1172 1662 -1272 157 -22 421 -15 574 15 236 48 471 147
674 284 71 48 114 72 117 64 283 -806 516 -1411 790 -2052 934 -2183 2027
-4028 3369 -5684 40 -49 -8 -11 -231 180 -568 488 -1023 917 -1949 1843 -911
912 -1299 1314 -2974 3081 -2033 2145 -2698 2826 -3150 3223 -771 678 -1460
1080 -2067 1209 -114 24 -150 27 -323 27 -212 1 -291 -12 -438 -70 -392 -155
-642 -547 -724 -1134 -20 -147 -17 -648 5 -830 105 -857 403 -1770 917 -2815
151 -306 237 -464 408 -750 582 -969 1436 -2052 2603 -3300 581 -621 1190
-1235 2404 -2421 1363 -1332 1791 -1774 2150 -2222 326 -406 465 -699 415
-877 -16 -58 -79 -129 -141 -161 -91 -46 -161 -58 -324 -57 -413 3 -1040 187
-2163 634 -427 171 -814 333 -1832 769 -1810 776 -2616 1096 -3500 1391 -805
268 -1459 424 -1992 475 -210 20 -572 15 -713 -10 -471 -82 -755 -298 -881
-670 -276 -810 495 -1782 2326 -2933 716 -450 1474 -866 2605 -1428 798 -397
1235 -604 2870 -1360 1607 -744 2230 -1058 2628 -1327 197 -134 327 -274 327
-352 0 -70 -101 -135 -285 -181 -161 -41 -321 -56 -615 -56 -443 0 -873 37
-1795 156 -1170 151 -1534 194 -1920 229 -1293 118 -2080 43 -2505 -239 -91
-60 -207 -186 -252 -271 -107 -204 -124 -458 -47 -688 56 -167 140 -298 289
-446 446 -446 1317 -807 2730 -1130 584 -134 1184 -247 2420 -455 816 -137
1180 -201 1460 -256 732 -142 1180 -274 1394 -409 82 -52 153 -130 162 -177
12 -61 -2 -149 -34 -218 -138 -293 -537 -355 -1286 -199 -321 67 -658 159
-1461 397 -1070 318 -1566 434 -2038 478 -184 17 -484 7 -611 -21 -278 -60
-460 -188 -562 -395 -70 -143 -87 -221 -88 -410 -1 -191 9 -238 89 -400 237
-482 919 -851 2205 -1195 400 -106 778 -193 1745 -400 1488 -319 2085 -489
2560 -729 308 -156 491 -312 585 -497 l29 -58 203 -38 c318 -60 607 -123 943
-209 171 -43 321 -81 334 -85 22 -7 20 -1 -21 52 -334 434 -505 960 -458 1409
41 400 218 738 558 1066 159 155 278 229 447 282 133 41 217 52 405 51 242 -1
468 -39 735 -125 l123 -39 6 -58 c8 -72 -10 -993 -24 -1207 -23 -349 -46 -567
-85 -794 -61 -349 -141 -573 -392 -1096 -412 -858 -491 -1036 -592 -1348 -64
-197 -98 -349 -136 -616 -87 -599 -381 -2340 -398 -2357 -4 -4 -376 122 -576
195 -47 17 -87 31 -90 31 -6 0 400 -269 547 -362 l90 -56 -8 -39 c-44 -230
-102 -554 -99 -557 8 -7 981 -197 986 -192 3 2 245 616 539 1363 295 747 810
2056 1146 2908 599 1520 616 1564 869 2304 142 415 261 756 264 759 3 3 9 1
14 -4 5 -5 20 -362 32 -794 l23 -785 -58 -200 c-109 -381 -200 -780 -246
-1080 -39 -251 -38 -684 5 -1810 8 -209 19 -506 25 -660 29 -769 109 -2418
118 -2426 4 -4 66 -3 137 2 72 5 292 18 490 29 198 12 361 22 361 23 2 2 149
1592 169 1827 71 810 443 4701 450 4708 2 3 50 -35 105 -84 152 -134 143 -130
136 -53 -8 89 -8 154 3 1504 5 660 12 1216 15 1235 4 19 33 280 66 580 64 584
108 941 141 1138 69 425 78 1019 23 1667 -24 292 -100 900 -120 967 -4 14 -18
10 -97 -27 -347 -165 -1005 -195 -1947 -89 -347 38 -1069 150 -1087 167 -2 3
18 85 45 184 240 857 364 1548 333 1863 -5 52 -19 137 -31 187 l-22 93 -96 -6
c-119 -8 -169 4 -224 54 -121 109 -344 490 -536 917 -35 77 -67 143 -70 147
-4 4 -43 -4 -87 -17 -43 -14 -80 -23 -82 -21 -5 5 -86 384 -137 641 -178 899
-265 1582 -237 1851 44 426 411 854 826 965 44 12 134 36 200 55 252 71 502
104 780 104 l166 0 23 53 c64 143 182 587 276 1034 l22 102 -69 84 c-121 150
-198 310 -244 505 -20 87 -23 92 -48 92 -34 1 -99 31 -132 62 -135 127 -165
422 -58 552 56 67 120 82 197 45 43 -21 45 -21 105 -5 110 30 189 86 348 245
160 161 293 332 449 575 l95 148 125 -6 c551 -24 807 -360 788 -1036 -3 -123
-2 -140 12 -133 8 4 39 9 68 11 48 4 57 1 83 -24 112 -107 17 -423 -160 -536
-25 -15 -55 -28 -67 -28 -19 0 -26 -11 -45 -67 -60 -182 -179 -382 -304 -508
-67 -68 -200 -166 -244 -180 -11 -3 -21 -16 -24 -28 -32 -136 -219 -1109 -214
-1113 3 -3 54 -18 114 -33 59 -15 140 -37 178 -49 39 -11 104 -28 145 -37 97
-21 219 -80 317 -154 104 -79 303 -285 379 -393 l61 -87 8 881 c4 484 4 1764
0 2844 l-8 1964 762 0 c721 0 762 1 757 18 -3 9 -48 161 -101 337 -144 482
-411 1291 -434 1317 -4 4 -239 -4 -524 -19 -285 -14 -519 -24 -522 -22 -2 2
-33 583 -68 1291 l-65 1287 -104 163 c-170 266 -451 653 -586 807 l-38 45 -90
-13 c-265 -37 -526 -18 -788 58 -38 12 -71 20 -72 18 -1 -1 2 -27 7 -57 150
-924 228 -1364 344 -1945 316 -1577 720 -3121 1190 -4542 51 -156 92 -283 91
-283 -1 0 -21 29 -44 64 -76 113 -204 240 -365 361 -23 17 -40 62 -117 310
-539 1729 -976 3581 -1283 5430 -30 181 -35 200 -53 199 -10 -1 -59 -7 -109
-14 -127 -18 -331 -8 -465 23 -549 128 -1051 549 -1327 1114 -35 72 -65 144
-66 159 -2 25 3 29 56 45 159 48 410 58 582 25 471 -92 915 -400 1225 -851 46
-68 60 -83 56 -60 -12 63 -67 445 -115 803 -28 205 -53 377 -56 382 -7 11
-180 111 -315 183 -631 334 -1535 574 -1954 518 -114 -16 -253 -60 -336 -108
-87 -51 -216 -180 -269 -270 -242 -410 -252 -1098 -30 -2180 141 -690 332
-1380 829 -2983 343 -1109 481 -1583 600 -2065 154 -622 221 -1074 206 -1380
-10 -213 -41 -318 -118 -401 -72 -78 -103 -89 -248 -89 -117 1 -131 3 -231 37
-184 63 -511 240 -588 317 -138 139 -608 699 -877 1046 -1841 2370 -3278 5308
-4297 8785 l-55 185 217 6 c222 7 312 19 492 64 627 159 1164 607 1464 1220
161 329 238 645 252 1036 5 134 3 178 -6 184 -7 4 -76 10 -154 12 -608 23
-1222 -229 -1653 -679 -379 -396 -612 -909 -664 -1468 -7 -69 -13 -126 -15
-128 -3 -4 -153 569 -234 893 -59 234 -174 728 -234 998 l-15 67 136 0 c244 0
448 33 684 110 937 307 1578 1227 1578 2265 l0 132 -37 7 c-69 11 -356 6 -463
-8 -733 -99 -1359 -545 -1708 -1216 -133 -255 -233 -575 -258 -825 -5 -50 -10
-64 -15 -50 -12 28 -106 514 -178 915 -103 578 -210 1280 -277 1828 l-28 224
66 126 c351 671 411 1471 173 2292 -56 190 -121 354 -225 565 -143 288 -280
498 -471 720 -108 126 -330 341 -436 422 l-80 62 -60 -102z"/>
<path d="M25353 38944 c3 -22 16 -117 28 -211 13 -95 26 -173 30 -173 3 0 14
21 24 48 10 26 39 88 64 138 l47 91 -84 64 c-119 90 -116 89 -109 43z"/>
<path d="M57209 31701 c-98 -31 -256 -134 -391 -253 -126 -111 -267 -295 -356
-465 -38 -71 -47 -81 -104 -113 -88 -49 -240 -204 -300 -305 -79 -132 -141
-304 -185 -508 -25 -114 -24 -333 1 -442 66 -287 254 -547 521 -721 117 -75
203 -116 371 -174 82 -29 185 -70 229 -93 158 -82 287 -207 351 -341 38 -79
32 -93 70 144 l26 165 -44 101 c-87 198 -185 339 -269 387 -136 79 -238 296
-209 446 17 93 54 136 124 148 38 6 117 -25 154 -59 34 -32 45 -12 50 89 3 68
-3 128 -28 263 -17 96 -34 227 -36 290 l-6 115 80 105 c169 222 321 360 496
447 102 51 139 81 168 137 109 211 -131 561 -439 641 -77 20 -204 18 -274 -4z"/>
<path d="M85577 28333 c-140 -233 -570 -999 -754 -1343 l-121 -225 -29 -640
c-17 -352 -29 -641 -28 -643 1 -1 49 71 105 160 57 90 226 345 375 568 299
445 514 775 731 1123 l142 227 -50 83 c-109 180 -248 480 -308 665 l-27 84
-36 -59z"/>
<path d="M58745 27674 c-697 -37 -1422 -111 -1654 -169 -253 -64 -439 -137
-580 -228 -102 -67 -335 -301 -409 -412 -116 -176 -186 -344 -218 -525 -36
-209 4 -656 97 -1062 139 -613 471 -1430 763 -1876 40 -62 42 -63 77 -58 20 3
77 21 125 40 49 19 92 31 96 27 22 -21 167 -422 227 -626 54 -187 144 -821
163 -1145 16 -285 16 -1655 -1 -2059 -9 -234 -9 -306 0 -312 6 -4 28 -9 48
-13 l36 -5 0 -393 c1 -299 5 -431 18 -553 39 -368 63 -807 87 -1600 23 -760
50 -2485 50 -3201 l0 -330 -235 -3148 c-129 -1731 -235 -3160 -235 -3175 l0
-28 123 -6 c67 -4 320 -10 562 -13 l440 -7 289 1374 c405 1930 796 3780 917
4339 56 261 104 493 106 515 38 383 93 961 93 973 0 8 2 13 4 11 7 -7 218
-701 312 -1029 122 -421 172 -633 184 -770 36 -412 202 -1863 476 -4140 161
-1341 171 -1420 177 -1426 6 -7 1122 23 1233 32 l71 6 6 77 c3 42 67 1336 143
2876 l137 2800 -296 3579 c-202 2453 -292 3584 -286 3595 21 33 -178 1947
-286 2761 -97 729 -136 900 -340 1510 -67 200 -82 257 -72 266 6 6 82 65 167
131 274 212 968 774 969 784 1 9 -207 323 -317 479 -443 626 -835 1076 -1227
1409 -505 430 -780 615 -985 665 -185 45 -326 58 -660 61 -179 1 -356 1 -395
-1z"/>
<path d="M87029 26969 c-36 -23 -152 -52 -234 -58 l-89 -6 -119 -140 c-416
-488 -860 -1078 -1215 -1615 -277 -418 -402 -577 -649 -825 l-139 -140 -12
-255 c-6 -140 -9 -256 -7 -258 2 -2 47 33 100 78 385 324 815 573 1289 750
220 81 212 88 106 -86 -49 -81 -90 -152 -90 -156 0 -25 501 -458 630 -545 25
-16 95 -57 155 -90 142 -78 715 -366 720 -362 7 9 178 275 406 632 l247 389
-112 156 c-433 603 -696 1081 -747 1357 -13 72 -6 163 17 208 10 17 92 107
185 198 l167 165 -87 107 c-126 152 -262 298 -366 389 -119 106 -138 119 -156
107z"/>
<path d="M102245 25801 c-135 -84 -188 -299 -158 -646 21 -254 -31 -467 -162
-665 -55 -82 -63 -88 -236 -181 -309 -164 -565 -356 -857 -644 l-153 -150 29
65 c36 81 74 195 107 324 94 368 62 881 -75 1183 -68 149 -246 356 -389 452
-231 156 -512 187 -645 70 -25 -22 -53 -61 -67 -91 -21 -47 -24 -67 -24 -183
1 -123 3 -136 38 -239 59 -173 162 -361 273 -501 239 -301 335 -484 404 -768
37 -151 54 -337 45 -492 -10 -182 -13 -190 -92 -291 -187 -238 -454 -630 -778
-1139 -98 -154 -181 -284 -185 -288 -4 -4 1 32 10 82 32 166 45 371 31 521
-28 324 -135 671 -268 866 -50 73 -228 246 -305 297 -159 105 -320 157 -483
157 -118 0 -189 -17 -256 -63 -63 -41 -95 -94 -110 -178 -29 -161 51 -370 234
-616 84 -112 99 -128 259 -276 207 -191 339 -366 434 -576 89 -197 131 -357
154 -580 l9 -95 -151 -245 c-267 -433 -626 -1038 -837 -1408 -29 -51 -54 -93
-56 -93 -2 0 7 33 21 73 68 198 104 420 104 645 0 181 -12 281 -51 440 -76
307 -219 574 -402 749 -67 64 -98 84 -211 139 -174 85 -287 114 -467 121 -322
13 -611 -84 -777 -260 -68 -73 -93 -129 -99 -226 -15 -218 136 -429 463 -649
33 -22 117 -64 185 -92 287 -120 477 -232 604 -356 95 -92 214 -254 269 -364
54 -107 107 -268 135 -407 32 -157 31 -165 -47 -306 -340 -608 -840 -1565
-1157 -2217 -139 -285 -176 -355 -161 -305 21 74 31 194 30 385 0 189 -3 233
-27 361 -53 293 -159 541 -332 774 -112 151 -259 286 -377 346 -52 26 -58 33
-52 52 4 12 49 155 101 317 160 505 178 598 177 930 -1 239 -10 325 -60 548
-31 140 -105 368 -164 507 -88 207 -264 532 -287 528 -9 -2 -3295 -1572 -3300
-1577 -1 -1 -76 -1622 -166 -3602 l-163 -3599 128 -2740 c70 -1507 127 -2772
127 -2811 l1 -71 98 -7 c196 -13 1095 -36 1102 -29 4 4 21 141 39 303 54 497
58 520 128 780 156 586 404 1427 604 2055 56 176 116 364 133 417 17 54 33 98
36 98 3 0 151 -737 328 -1637 l322 -1636 -55 -71 c-371 -478 -845 -1101 -845
-1110 0 -3 26 6 58 20 31 14 129 56 216 92 l159 66 150 201 c275 366 469 616
481 620 6 2 231 9 501 15 269 6 491 13 493 14 2 2 -17 246 -42 543 -25 296
-46 549 -46 563 0 55 1102 1366 1924 2290 1256 1410 2678 2865 4041 4133 l189
177 97 0 c147 0 291 -17 429 -51 291 -72 478 -173 787 -427 159 -130 325 -222
522 -290 96 -32 117 -36 216 -36 234 -2 333 84 343 300 12 263 -143 530 -433
744 -112 83 -222 131 -395 173 -228 56 -561 74 -774 42 -87 -13 -326 -70 -381
-91 -23 -8 28 40 320 301 426 381 1199 1054 1282 1115 31 23 35 23 190 17 184
-7 292 -24 458 -73 244 -72 423 -176 710 -415 217 -181 538 -319 738 -319 219
1 331 115 329 336 -1 359 -339 747 -757 869 -158 46 -305 67 -509 72 -224 7
-346 -5 -535 -53 -74 -18 -137 -32 -139 -30 -7 8 816 677 1316 1069 l263 207
63 0 c82 0 213 -23 301 -53 153 -53 262 -123 428 -277 290 -268 586 -314 637
-99 46 189 -120 462 -345 568 -201 95 -487 124 -725 73 l-85 -18 73 75 c160
164 269 366 317 585 46 208 -27 458 -171 585 -186 164 -346 75 -385 -214 -13
-105 -8 -210 20 -360 27 -145 27 -301 1 -419 -37 -166 -89 -278 -152 -328 -24
-19 -185 -144 -358 -278 -1524 -1179 -3068 -2496 -4494 -3833 -110 -103 -201
-186 -203 -184 -2 2 12 37 31 78 210 458 191 1010 -51 1411 -103 172 -253 289
-455 356 -282 93 -620 49 -815 -106 -263 -210 -76 -609 400 -854 270 -138 413
-252 527 -419 106 -155 163 -305 195 -511 l15 -103 -277 -269 c-376 -364
-1330 -1320 -1643 -1646 -1012 -1054 -2027 -2186 -2900 -3232 -113 -136 -206
-245 -208 -243 -2 2 -95 1091 -206 2421 l-204 2419 5 315 5 315 73 175 c669
1606 1565 3458 2371 4902 l54 96 78 8 c99 9 302 -1 417 -21 311 -53 568 -178
854 -414 142 -117 215 -166 351 -235 255 -130 455 -165 611 -107 62 24 106 65
140 131 18 35 24 66 27 143 5 119 -13 205 -68 323 -75 163 -173 279 -334 401
-158 119 -300 177 -550 224 -142 27 -470 37 -612 19 -103 -13 -296 -57 -404
-92 -85 -27 -247 -104 -334 -157 -37 -23 -69 -41 -71 -39 -7 7 483 852 788
1358 l214 355 104 8 c118 9 341 -5 452 -28 304 -64 533 -181 822 -419 333
-274 698 -407 923 -337 76 23 116 51 146 104 34 59 47 116 47 207 0 108 -23
198 -80 315 -83 168 -218 314 -408 441 -106 70 -277 129 -488 167 -99 17 -159
21 -345 22 -146 0 -251 -5 -300 -13 -111 -20 -299 -68 -382 -98 -85 -31 -250
-112 -326 -160 -64 -41 -71 -57 97 209 765 1211 962 1507 1226 1842 399 506
798 869 1215 1105 l75 42 105 -6 c255 -14 447 -105 676 -319 238 -222 494
-303 601 -191 69 73 67 218 -4 364 -51 104 -178 230 -283 282 -148 73 -371
115 -559 105 -58 -3 -115 -9 -125 -13 -11 -4 18 30 65 77 130 128 227 286 292
472 29 85 32 102 31 212 -1 101 -5 133 -28 202 -71 218 -253 357 -371 284z
m-6667 -8875 c195 -100 408 -317 535 -546 44 -81 127 -282 127 -309 0 -12 -34
-94 -76 -184 -194 -413 -498 -1088 -631 -1402 -30 -71 -59 -134 -65 -140 -6
-7 -8 99 -4 310 3 176 8 496 11 710 13 938 32 1585 47 1585 5 0 30 -11 56 -24z
m-1613 -5496 c69 -349 125 -646 125 -659 0 -13 -72 -240 -159 -505 -136 -410
-369 -1150 -426 -1351 -10 -33 -20 -63 -24 -67 -4 -4 35 369 86 830 96 871
209 1934 240 2251 11 118 20 175 25 160 4 -13 64 -310 133 -659z"/>
<path d="M103079 11874 c-52 -16 -133 -94 -167 -160 -91 -179 -106 -490 -37
-784 89 -383 87 -657 -7 -955 -38 -120 -164 -377 -210 -427 -31 -34 -48 -40
-263 -103 -470 -137 -1279 -414 -1889 -646 -143 -54 -261 -97 -264 -95 -2 3 5
9 15 14 80 44 291 271 395 427 120 179 231 445 279 671 71 333 -33 702 -259
916 -147 138 -304 188 -415 131 -77 -39 -151 -153 -190 -292 -18 -67 -21 -102
-21 -291 0 -207 2 -220 32 -340 47 -191 63 -292 69 -450 11 -288 -62 -569
-216 -839 -28 -49 -57 -93 -64 -98 -6 -5 -131 -58 -277 -118 -269 -109 -1212
-512 -1730 -738 -157 -68 -287 -123 -289 -121 -2 2 27 36 63 76 182 198 303
403 395 672 50 145 80 288 87 415 11 186 -58 427 -167 591 -148 220 -379 340
-523 270 -87 -42 -157 -147 -198 -298 -19 -67 -21 -104 -22 -282 0 -195 2
-211 32 -335 53 -221 64 -294 69 -457 5 -133 2 -177 -17 -290 -12 -73 -38
-180 -56 -238 -38 -115 -133 -318 -161 -342 -10 -8 -171 -86 -358 -172 -187
-87 -441 -208 -565 -269 l-225 -112 3 -100 c2 -55 5 -107 8 -116 4 -14 73 18
367 166 862 436 2608 1252 3426 1600 l133 56 42 -16 c157 -62 327 -178 471
-320 151 -150 235 -281 357 -559 58 -134 157 -275 273 -392 126 -127 200 -167
315 -172 69 -3 79 -1 122 27 156 100 217 395 137 658 -32 104 -115 264 -176
337 -148 179 -456 380 -711 466 -128 43 -309 80 -431 88 l-106 7 230 94 c696
284 1482 568 2107 762 l227 70 85 -37 c198 -84 349 -189 496 -341 138 -142
216 -266 334 -531 102 -232 298 -463 454 -538 125 -59 212 -53 293 23 98 91
146 241 136 422 -8 143 -27 212 -104 371 -63 130 -69 139 -172 240 -275 272
-645 443 -1045 483 l-119 12 254 67 c326 87 697 173 1019 238 295 60 766 140
820 140 50 0 180 -35 256 -70 158 -72 276 -172 402 -341 162 -220 365 -349
485 -310 142 47 157 300 30 499 -56 88 -147 172 -240 220 -157 81 -287 120
-437 131 l-88 6 84 57 c145 98 283 257 362 415 48 96 59 143 60 263 1 129 -24
218 -84 303 -95 132 -214 141 -313 22 -68 -82 -124 -251 -138 -415 -25 -287
-93 -457 -248 -622 -100 -107 -135 -123 -318 -148 -392 -55 -873 -142 -1290
-235 -226 -51 -803 -194 -845 -210 -39 -15 -15 5 46 39 76 42 199 133 275 202
75 67 211 231 282 339 164 246 283 588 296 845 8 174 -47 398 -137 550 -100
170 -239 287 -387 325 -68 18 -84 18 -144 -1z"/>
<path d="M57270 6207 c-92 -31 -158 -249 -177 -579 l-6 -118 -24392 0 -24391
0 -51 -25 c-96 -48 -148 -154 -141 -285 7 -120 56 -208 140 -251 37 -19 864
-19 50472 -19 31185 0 50444 4 50459 9 41 16 97 71 125 125 24 45 27 62 27
151 0 89 -3 106 -28 157 -32 65 -80 110 -136 127 -29 8 -5759 11 -22738 11
l-22700 0 -6 30 c-21 101 -530 338 -1256 584 l-224 76 -176 -44 c-197 -50
-389 -91 -471 -101 -75 -9 -160 12 -340 84 -175 70 -237 85 -289 71 -63 -17
-96 -66 -131 -192 -24 -90 -50 -304 -50 -420 l0 -88 -375 0 c-311 0 -373 2
-369 14 3 7 -7 28 -22 45 -101 120 -556 324 -1218 547 l-248 84 -182 -46
c-187 -47 -374 -87 -461 -99 -72 -9 -170 14 -329 79 -119 49 -239 87 -271 85
-5 0 -26 -5 -45 -12z"/>
</g>
</svg>
