<svg id="visual" viewBox="0 0 900 600" width="900" height="600" xmlns="http://www.w3.org/2000/svg" xmlns:xlink="http://www.w3.org/1999/xlink" version="1.1"><path d="M0 139L82 139L82 109L164 109L164 103L245 103L245 151L327 151L327 253L409 253L409 163L491 163L491 217L573 217L573 199L655 199L655 295L736 295L736 241L818 241L818 223L900 223L900 175L900 0L900 0L818 0L818 0L736 0L736 0L655 0L655 0L573 0L573 0L491 0L491 0L409 0L409 0L327 0L327 0L245 0L245 0L164 0L164 0L82 0L82 0L0 0Z" fill="#009473"></path><path d="M0 181L82 181L82 199L164 199L164 157L245 157L245 193L327 193L327 355L409 355L409 235L491 235L491 253L573 253L573 253L655 253L655 343L736 343L736 313L818 313L818 295L900 295L900 211L900 173L900 221L818 221L818 239L736 239L736 293L655 293L655 197L573 197L573 215L491 215L491 161L409 161L409 251L327 251L327 149L245 149L245 101L164 101L164 107L82 107L82 137L0 137Z" fill="#5eaf94"></path><path d="M0 283L82 283L82 289L164 289L164 265L245 265L245 271L327 271L327 433L409 433L409 301L491 301L491 337L573 337L573 307L655 307L655 421L736 421L736 373L818 373L818 409L900 409L900 331L900 209L900 293L818 293L818 311L736 311L736 341L655 341L655 251L573 251L573 251L491 251L491 233L409 233L409 353L327 353L327 191L245 191L245 155L164 155L164 197L82 197L82 179L0 179Z" fill="#96cab7"></path><path d="M0 445L82 445L82 343L164 343L164 343L245 343L245 385L327 385L327 511L409 511L409 463L491 463L491 499L573 499L573 481L655 481L655 493L736 493L736 505L818 505L818 493L900 493L900 481L900 329L900 407L818 407L818 371L736 371L736 419L655 419L655 305L573 305L573 335L491 335L491 299L409 299L409 431L327 431L327 269L245 269L245 263L164 263L164 287L82 287L82 281L0 281Z" fill="#cbe5da"></path><path d="M0 601L82 601L82 601L164 601L164 601L245 601L245 601L327 601L327 601L409 601L409 601L491 601L491 601L573 601L573 601L655 601L655 601L736 601L736 601L818 601L818 601L900 601L900 601L900 479L900 491L818 491L818 503L736 503L736 491L655 491L655 479L573 479L573 497L491 497L491 461L409 461L409 509L327 509L327 383L245 383L245 341L164 341L164 341L82 341L82 443L0 443Z" fill="#ffffff"></path></svg>