<?xml version="1.0" standalone="no"?>
<!DOCTYPE svg PUBLIC "-//W3C//DTD SVG 20010904//EN"
 "http://www.w3.org/TR/2001/REC-SVG-20010904/DTD/svg10.dtd">
<svg version="1.0" xmlns="http://www.w3.org/2000/svg"
 width="1920.000000pt" height="1080.000000pt" viewBox="0 0 1920.000000 1080.000000"
 preserveAspectRatio="xMidYMid meet">

<g transform="translate(0.000000,1080.000000) scale(0.100000,-0.100000)"
fill="#000000" stroke="none">
<path d="M6395 1899 c-647 -37 -1168 -145 -1875 -389 -720 -249 -898 -305
-1160 -365 -163 -37 -400 -78 -565 -97 -151 -17 -759 -17 -885 0 -265 37 -505
84 -805 158 -145 37 -1046 283 -1093 299 -9 3 -12 -151 -12 -750 l0 -755 9600
0 9600 0 0 880 c0 697 -3 880 -12 880 -7 0 -62 7 -123 15 -374 49 -931 70
-1475 55 -934 -25 -1506 -99 -2933 -379 -1130 -223 -1590 -291 -2312 -343
-222 -16 -896 -16 -1095 0 -668 54 -1088 136 -2152 423 -931 250 -1367 333
-1963 369 -182 11 -533 11 -740 -1z"/>
</g>
</svg>
